<svg width="167" height="170" viewBox="0 0 167 170" fill="none" xmlns="http://www.w3.org/2000/svg">
<path d="M139.504 150.861C140.518 148.653 139.58 146.945 132.494 138.182L125.747 129.838L127.17 128.226C130.793 124.14 133.744 120.134 135.801 116.39L138.006 112.372L146.607 115.901C151.35 117.848 156.055 119.748 157.11 120.051C159.701 120.885 161.84 120.158 162.879 118.162C163.821 116.32 163.623 114.708 162.228 112.983C161.324 111.864 145.159 104.815 142.055 104.165C140.992 103.944 140.886 103.722 141.287 102.395C142.614 97.9304 143.473 88.6025 142.994 83.3623C142.857 82.0083 143.282 81.8959 153.036 80.5617C165.065 78.8521 165.065 78.8521 166.09 77.0211C167.16 75.1542 167.012 73.423 165.625 71.6157C164.079 69.7046 162.548 69.6327 152.623 71.0284C148.04 71.6499 143.667 72.2566 142.913 72.3266L141.405 72.4666L138.922 65.8409C137.521 62.1943 135.359 57.6981 134.105 55.7827L131.854 52.3609L140.365 45.4793C148.385 38.9941 148.971 38.4431 149.146 36.8369C149.442 34.2856 147.526 31.8257 144.857 31.4404C143.376 31.2499 142.543 31.7692 134.454 38.0785L125.652 44.9644L124.409 43.4262C122.637 41.2354 114.578 35.1868 110.596 33.0874C108.766 32.1002 107.587 31.2803 107.878 31.2761C108.595 31.1594 115.26 12.9733 115.223 10.9221C115.309 7.38341 110.488 4.88368 107.859 7.00939C107.19 7.54983 105.14 12.214 103.141 17.7618C101.2 23.1083 99.4929 27.6495 99.3147 27.7936C99.1365 27.9378 97.4161 27.6329 95.545 27.1415C91.9296 26.1334 85.7541 25.4223 80.7711 25.3657L77.865 25.3259L75.9271 14.6359C74.7664 8.09682 73.6191 3.39706 72.9784 2.60465C71.7346 1.06644 68.294 0.456649 67.0018 1.50149C64.863 3.23089 64.7941 5.05958 66.6874 15.7856C68.1767 24.3716 68.3648 26.6092 67.5594 26.7979C63.5633 27.8707 56.3385 30.7832 53.0207 32.695L49.0483 34.9819L41.9249 26.1722C34.9146 17.5022 34.8392 17.409 32.8207 17.191C29.9865 16.7846 27.7072 18.7047 27.7787 21.345C27.8298 23.2309 28.3506 23.9661 34.8709 32.03L41.919 40.7466L38.858 44.0696C37.2127 45.8625 34.5801 49.5329 33.0374 52.0908C31.4502 54.6846 29.9659 57.0412 29.6471 57.376C29.3283 57.7108 25.36 56.4485 19.9353 54.2052C14.8704 52.1336 9.8603 50.4031 8.7842 50.3481C6.26532 50.1493 4.79489 51.3382 4.29754 53.8218C3.60469 57.1571 5.24949 58.3711 16.4279 62.8999L26.4 66.9395L25.9095 69.3403C24.9458 73.4344 24.204 82.3596 24.4571 85.3156C24.5802 86.8349 24.5457 88.2504 24.3229 88.4305C24.1001 88.6107 19.5111 89.3148 14.1305 90.0424C3.07786 91.5018 1.49101 92.0911 0.870196 95.0599C0.575199 96.6089 0.797819 97.4311 1.92852 98.8294C3.73764 101.067 4.40249 101.069 17.2304 99.2532C24.1704 98.2669 26.3809 98.1755 26.5659 98.951C27.5865 102.674 31.4541 111.649 33.1775 114.419L35.2709 117.737L26.9487 124.851C17.869 132.578 17.3445 133.388 18.8313 136.503C19.5747 138.06 22.5217 139.609 23.8858 139.199C24.3999 139.015 28.5232 135.912 33.0682 132.237C41.1778 125.68 41.2669 125.608 42.312 126.536C49.0247 132.286 51.8345 134.485 55.2407 136.51L59.202 138.858L57.1825 144.653C56.003 147.843 54.3709 152.477 53.4623 154.908C51.7925 159.495 51.7923 160.498 53.413 162.502C54.8452 164.273 56.425 164.769 58.3923 164.103C60.6201 163.304 60.4795 163.495 64.6831 151.925C67.553 143.9 68.3106 142.285 69.1125 142.639C71.6827 143.721 79.5579 144.985 84.3249 145.139C87.1866 145.215 89.6163 145.486 89.678 145.744C89.7465 145.92 90.5956 150.707 91.6296 156.269C93.7797 168.406 95.1262 170.709 99.5096 169.478C102.79 168.522 102.934 166.786 100.852 154.825L98.8457 143.959L102.551 142.89C106.084 141.883 112.726 138.979 116.699 136.692L118.618 135.603L125.553 144.18C129.36 148.888 132.885 152.975 133.358 153.286C134.311 153.826 137.505 153.402 138.403 152.599C138.715 152.347 139.24 151.537 139.504 150.861ZM94.9018 120.398C91.0738 119.948 88.8402 114.816 91.1951 111.986C92.6759 110.172 95.8907 109.5 97.7137 110.57C99.7697 111.837 101.202 114.611 100.715 116.469C100.104 118.813 97.2424 120.741 94.9018 120.398ZM110.136 95.1294C106.373 95.3969 103.525 94.1534 101.189 91.2635C97.0428 86.1361 97.3761 80.6246 102.01 76.8775C110.209 70.2482 121.476 78.7141 118.129 88.9747C117.224 91.8651 113.227 94.9425 110.136 95.1294ZM62.5329 100.781C59.2804 101.407 53.6842 100.227 51.169 98.4835C42.0986 92.096 41.1753 80.2001 49.2404 73.6789C53.8745 69.9319 58.7548 69.2234 64.0904 71.5387C70.7898 74.4472 74.562 80.5705 73.9782 87.5951C73.5661 92.5536 71.7218 95.7408 67.715 98.4409C66.2206 99.418 63.8455 100.491 62.5329 100.781ZM86.6662 62.4578C85.0006 62.4941 82.9685 61.4391 81.8378 60.0407C80.4056 58.2695 80.8621 54.2772 82.6444 52.8361C86.0309 50.0979 91.7913 53.3031 91.3827 57.7191C91.2349 59.9971 88.743 62.4745 86.6662 62.4578Z" fill="#646AE4"/>
</svg>
