<svg width="356" height="343" viewBox="0 0 356 343" fill="none" xmlns="http://www.w3.org/2000/svg">
<path d="M292.724 208.792C293.739 206.584 292.8 204.876 285.714 196.113L278.968 187.769L280.39 186.157C284.013 182.071 286.965 178.066 289.022 174.321L291.226 170.303L299.827 173.832C304.57 175.779 309.275 177.679 310.331 177.982C312.921 178.816 315.06 178.089 316.099 176.093C317.041 174.251 316.843 172.639 315.448 170.914C314.544 169.795 298.38 162.746 295.275 162.096C294.212 161.875 294.106 161.653 294.507 160.326C295.834 155.861 296.693 146.534 296.214 141.293C296.077 139.939 296.502 139.827 306.256 138.493C318.285 136.783 318.285 136.783 319.31 134.952C320.38 133.085 320.233 131.354 318.845 129.547C317.3 127.636 315.768 127.564 305.843 128.96C301.261 129.581 296.887 130.188 296.134 130.258L294.626 130.398L292.142 123.772C290.741 120.125 288.579 115.629 287.325 113.714L285.074 110.292L293.585 103.41C301.605 96.9252 302.192 96.3742 302.367 94.768C302.662 92.2167 300.747 89.7568 298.077 89.3715C296.596 89.181 295.764 89.7003 287.675 96.0096L278.873 102.895L277.629 101.357C275.857 99.1665 267.798 93.1179 263.816 91.0185C261.986 90.0313 260.807 89.2114 261.099 89.2072C261.815 89.0905 268.48 70.9044 268.443 68.8532C268.529 65.3145 263.708 62.8148 261.079 64.9405C260.41 65.4809 258.36 70.1451 256.361 75.6929C254.421 81.0394 252.713 85.5806 252.535 85.7247C252.357 85.8689 250.636 85.564 248.765 85.0726C245.15 84.0645 238.974 83.3534 233.991 83.2969L231.085 83.257L229.147 72.567C227.987 66.0279 226.839 61.3282 226.199 60.5358C224.955 58.9975 221.514 58.3878 220.222 59.4326C218.083 61.162 218.014 62.9907 219.908 73.7168C221.397 82.3027 221.585 84.5403 220.78 84.729C216.783 85.8018 209.559 88.7143 206.241 90.6261L202.268 92.913L195.145 84.1033C188.135 75.4333 188.059 75.3401 186.041 75.1221C183.207 74.7157 180.927 76.6358 180.999 79.2761C181.05 81.162 181.571 81.8972 188.091 89.9611L195.139 98.6777L192.078 102.001C190.433 103.794 187.8 107.464 186.258 110.022C184.67 112.616 183.186 114.972 182.867 115.307C182.549 115.642 178.58 114.38 173.155 112.136C168.091 110.065 163.08 108.334 162.004 108.279C159.486 108.08 158.015 109.269 157.518 111.753C156.825 115.088 158.47 116.302 169.648 120.831L179.62 124.871L179.13 127.271C178.166 131.365 177.424 140.291 177.677 143.247C177.8 144.766 177.766 146.182 177.543 146.362C177.32 146.542 172.731 147.246 167.351 147.974C156.298 149.433 154.711 150.022 154.09 152.991C153.795 154.54 154.018 155.362 155.149 156.761C156.958 158.998 157.623 159 170.451 157.184C177.391 156.198 179.601 156.107 179.786 156.882C180.807 160.605 184.674 169.581 186.398 172.35L188.491 175.668L180.169 182.782C171.089 190.51 170.565 191.319 172.051 194.434C172.795 195.991 175.742 197.54 177.106 197.131C177.62 196.946 181.743 193.843 186.288 190.168C194.398 183.611 194.487 183.539 195.532 184.467C202.245 190.217 205.055 192.416 208.461 194.441L212.422 196.789L210.403 202.584C209.223 205.774 207.591 210.408 206.682 212.839C205.013 217.427 205.013 218.429 206.633 220.433C208.065 222.204 209.645 222.7 211.612 222.034C213.84 221.235 213.7 221.426 217.903 209.856C220.773 201.831 221.531 200.216 222.333 200.57C224.903 201.652 232.778 202.916 237.545 203.07C240.407 203.146 242.836 203.417 242.898 203.675C242.967 203.851 243.816 208.638 244.85 214.2C247 226.337 248.346 228.641 252.73 227.409C256.01 226.453 256.154 224.717 254.072 212.756L252.066 201.89L255.771 200.821C259.304 199.814 265.946 196.91 269.919 194.624L271.838 193.534L278.773 202.111C282.58 206.819 286.106 210.906 286.579 211.217C287.531 211.757 290.725 211.333 291.623 210.53C291.935 210.278 292.46 209.468 292.724 208.792ZM248.122 178.329C244.294 177.879 242.06 172.747 244.415 169.918C245.896 168.104 249.111 167.431 250.934 168.501C252.99 169.768 254.422 172.542 253.935 174.4C253.325 176.744 250.463 178.672 248.122 178.329ZM263.356 153.06C259.593 153.328 256.746 152.085 254.409 149.195C250.263 144.067 250.596 138.556 255.23 134.809C263.429 128.179 274.696 136.645 271.349 146.906C270.444 149.796 266.448 152.874 263.356 153.06ZM215.753 158.712C212.501 159.338 206.904 158.158 204.389 156.415C195.319 150.027 194.396 138.131 202.461 131.61C207.095 127.863 211.975 127.155 217.311 129.47C224.01 132.378 227.782 138.502 227.198 145.526C226.786 150.485 224.942 153.672 220.935 156.372C219.441 157.349 217.066 158.422 215.753 158.712ZM239.886 120.389C238.221 120.425 236.189 119.37 235.058 117.972C233.626 116.201 234.082 112.208 235.865 110.767C239.251 108.029 245.011 111.234 244.603 115.65C244.455 117.928 241.963 120.406 239.886 120.389Z" fill="#646AE4"/>
<path d="M133.923 243.61C133.866 241.807 133.352 240.989 128.49 234.976L123.138 228.357L126.703 223.47C128.677 220.718 130.504 218.238 130.741 217.893C131.059 217.558 134.504 218.627 139.006 220.46C147.21 223.771 149.109 223.931 150.943 221.369C152.112 219.807 151.93 217.487 150.574 215.809C149.933 215.017 146.304 213.171 141.921 211.396L134.368 208.253L134.945 201.311L135.522 194.369L143.425 193.298C151.873 192.172 153.95 191.186 154.184 188.376C154.397 185.814 153.225 183.909 151.069 183.34C150.014 183.037 145.757 183.241 141.556 183.786C137.227 184.357 133.807 184.501 133.55 184.092C133.375 183.694 131.995 180.802 130.552 177.651L127.829 171.913L134.156 166.797C139.904 162.149 140.542 161.48 140.895 159.729C141.437 157.21 139.258 154.423 136.619 154.167C134.847 153.981 134.319 154.331 128.304 159.195L121.798 164.455L116.795 160.637C113.979 158.521 111.44 156.565 111.049 156.265C110.665 155.881 111.355 153.088 112.921 148.738C115.925 140.605 116.124 138.208 114.109 136.445C113.335 135.761 111.927 135.204 111.097 135.181C108.198 135.058 106.837 136.929 104.019 144.836L101.324 152.257L94.4147 151.368L87.5059 150.479L86.1398 142.41C85.1983 137.235 84.3147 133.864 83.5609 132.932C82.204 131.254 78.8525 130.572 77.4712 131.689C75.3324 133.418 75.2121 135.366 76.6912 143.575C77.4717 148.185 78.1565 151.949 78.1119 151.985C78.0674 152.021 76.6588 152.466 75.0788 152.972C73.4543 153.515 70.661 154.617 68.8753 155.599L65.6227 157.227L60.3084 150.654C56.0118 145.34 54.672 143.957 53.4143 143.586C51.228 142.887 49.1716 143.625 48.1911 145.42C46.7308 147.988 47.1179 148.832 52.9906 156.186L58.4934 162.991L56.2722 165.712C55.0656 167.228 53.2831 169.671 52.3163 171.301L50.5817 174.168L44.4305 171.664C41.0517 170.311 37.4706 168.889 36.5488 168.478C33.4543 167.203 30.5513 168.625 29.9168 171.759C29.2754 174.976 31.1771 176.599 39.9053 180.103L47.465 183.163L46.875 186.262C46.6039 188.022 46.3052 191.116 46.3426 193.167L46.2802 196.918L38.4217 197.953C29.302 199.16 27.1736 200.264 27.2724 203.576C27.3781 206.806 29.9858 208.937 33.2245 208.477C34.1944 208.309 37.9334 207.83 41.4634 207.365L47.8962 206.481L49.1225 209.729C49.8008 211.57 51.1437 214.416 52.0756 216.206L53.8022 219.435L47.2967 224.696C40.3387 230.399 39.8211 231.126 40.8282 234.012C41.4927 236.018 43.3843 237.264 45.6393 237.136C46.9313 237.094 48.4703 236.081 53.5499 231.974L59.8326 226.893L62.7864 229.362C64.3352 230.73 66.9257 232.567 68.389 233.465C69.8899 234.41 71.1578 235.158 71.1954 235.205C71.2331 235.251 69.9439 238.76 68.4216 243.075C65.6237 250.733 65.4212 252.67 67.2303 254.908C68.3987 256.353 71.7915 256.539 73.3956 255.242C74.2868 254.521 75.6993 251.529 77.4342 246.657L80.136 239.153L87.0072 239.996L93.9606 240.849L95.3781 248.799C96.8366 257.256 97.8609 259.434 100.674 260.088C101.535 260.241 103.005 260.054 103.875 259.581C106.137 258.369 106.337 255.972 104.734 247.246C103.916 242.589 103.701 239.68 104.139 239.402C104.571 239.207 107.378 237.939 110.439 236.621L116.008 234.122L121.549 240.974C126.825 247.5 127.134 247.79 128.905 247.976C131.627 248.243 134.002 246.168 133.923 243.61ZM100.726 219.961C97.1822 220.591 93.653 216.044 95.0553 212.674C96.0462 210.254 97.1464 209.519 99.8366 209.656C104.686 209.821 106.806 215.815 103.101 218.888C102.522 219.357 101.487 219.808 100.726 219.961ZM116.22 200.572C114.616 200.867 111.802 199.21 110.99 197.477C109.966 195.299 110.546 192.826 112.417 191.312C114.645 189.511 116.917 189.678 119.151 191.803C120.693 193.254 120.937 193.829 120.785 195.647C120.593 197.961 118.495 200.197 116.22 200.572ZM68.8394 205.041C62.3418 204.205 62.4599 194.782 68.9816 194.828C71.5143 194.861 73.536 196.541 74.1078 199.162C74.9263 202.817 72.5029 205.471 68.8394 205.041ZM92.1548 179.559C89.3138 179.235 87.1347 176.449 87.4436 173.733C87.9413 169.245 93.3392 167.809 96.2413 171.398C98.2012 173.822 97.9985 176.761 95.7706 178.563C94.6566 179.463 93.5085 179.775 92.1548 179.559Z" fill="#646AE4"/>
</svg>
